<svg xmlns="http://www.w3.org/2000/svg" width="800" height="671.575" viewBox="0 0 800 671.575">
  <g id="drag" transform="translate(-236 -163)">
    <path id="Path_111" data-name="Path 111" d="M10.354,0H789.646C795.364,0,800,5.493,800,12.27V659.3c0,6.777-4.636,12.27-10.354,12.27H10.354C4.636,671.575,0,666.081,0,659.3V12.27C0,5.493,4.636,0,10.354,0Z" transform="translate(236 163)" fill="none"/>
    <path id="uploadIcon" d="M351.02,176.461c-12.016,0-16.378-9.553-16.378-15.974V116.951l-.525.624a7.174,7.174,0,0,1-10.712.3,7.25,7.25,0,0,1-.16-9.661l11.148-13.244a9.712,9.712,0,0,1,14.994,0l11.163,13.26a7.271,7.271,0,0,1,.308,9.08,7.178,7.178,0,0,1-11.2.266l-.672-.8V160.4c.042,1.166.271,1.716,2.03,1.716l50.2.1a26.251,26.251,0,1,0,0-52.5,27.414,27.414,0,0,0-4.191.326,26.305,26.305,0,0,0-5.558,1.55,7.007,7.007,0,0,1-7.742-1.8,6.941,6.941,0,0,1-1.827-5.332l.019-.23c.108-1.319.161-2.495.161-3.588a43.355,43.355,0,0,0-86.6-3.052,7.194,7.194,0,0,1-7.151,6.677c-.206,0-.414-.009-.624-.027-.926-.08-1.757-.119-2.541-.119a29.028,29.028,0,0,0-28.951,30.612c.836,15.353,13.776,27.379,29.459,27.379h33.666a7.175,7.175,0,0,1,7.12,8.058,7.271,7.271,0,0,1-7.3,6.29h-33.4a44.049,44.049,0,0,1-29.912-11.976,43.066,43.066,0,0,1,26.184-74.6,58.1,58.1,0,0,1,56.689-46.952,57.789,57.789,0,0,1,57.5,52.738,40.772,40.772,0,0,1,5-.308c.472,0,.946.008,1.42.024a40.821,40.821,0,0,1,39.126,38.441,40.64,40.64,0,0,1-40.545,42.732Z" transform="translate(294.184 296.938)" fill="#ccc"/>
  </g>
</svg>
