<svg id="searchicon" xmlns="http://www.w3.org/2000/svg" width="20" height="19.9" viewBox="0 0 20 19.9">
  <rect id="Rectangle_176" data-name="Rectangle 176" width="16" height="16" fill="none"/>
  <path id="Path_99" data-name="Path 99" d="M20,18.148l-4.151-4.13A8.541,8.541,0,0,0,17.61,8.761,8.729,8.729,0,0,0,8.805,0a8.761,8.761,0,1,0,0,17.522,8.641,8.641,0,0,0,5.283-1.752l4.151,4.13ZM2.516,8.761A6.213,6.213,0,0,1,8.805,2.5a6.213,6.213,0,0,1,6.289,6.258,6.213,6.213,0,0,1-6.289,6.258A6.213,6.213,0,0,1,2.516,8.761Z" fill="#9d0059"/>
</svg>
